<?xml version="1.0" encoding="UTF-8"?>
<svg version="1.1" xmlns="http://www.w3.org/2000/svg" width="1024" height="1024">
<path d="M0 0 C337.92 0 675.84 0 1024 0 C1024 337.92 1024 675.84 1024 1024 C686.08 1024 348.16 1024 0 1024 C0 686.08 0 348.16 0 0 Z " fill="#000000" transform="translate(0,0)"/>
<path d="M0 0 C2.80008505 1.16936668 5.55717393 1.7882162 8.51953125 2.4375 C13.24753874 3.53746061 16.75131284 5.07398668 20.67578125 7.9140625 C22.56339626 9.10669199 24.21563723 9.56995513 26.39453125 10 C26.39453125 10.66 26.39453125 11.32 26.39453125 12 C27.10609375 12.26039063 27.81765625 12.52078125 28.55078125 12.7890625 C38.86799051 17.18237963 47.08382325 24.98156988 55.02441406 32.68115234 C56.13651153 33.75163533 57.27370206 34.796006 58.41796875 35.83203125 C76.99007173 53.05264317 90.38188008 82.97700217 91.39453125 108 C91.44077637 108.96325195 91.48702148 109.92650391 91.53466797 110.91894531 C92.32471849 129.96450477 91.50843513 149.42722448 83.39453125 167 C82.8276549 168.49835158 82.26475801 169.99821869 81.70703125 171.5 C77.85168532 181.18284959 72.80992428 190.78027768 66.39453125 199 C63.43953818 197.67099659 61.38178347 196.22700207 59.1171875 193.91796875 C58.22290039 193.01401367 58.22290039 193.01401367 57.31054688 192.09179688 C56.39305664 191.14916992 56.39305664 191.14916992 55.45703125 190.1875 C54.84923828 189.57068359 54.24144531 188.95386719 53.61523438 188.31835938 C52.41925544 187.10431819 51.22488661 185.8886885 50.03222656 184.67138672 C46.89983263 181.47455177 43.74592275 178.32609131 40.46484375 175.28125 C39.48300031 174.35424356 38.50122987 173.4271598 37.51953125 172.5 C37.0090625 172.03980469 36.49859375 171.57960938 35.97265625 171.10546875 C34.52734375 169.71875 34.52734375 169.71875 32.39453125 167 C32.38671875 164.703125 32.38671875 164.703125 33.39453125 162 C33.85289604 160.60938537 34.31122603 159.21875927 34.76953125 157.828125 C35.30764647 156.3008274 35.84940545 154.77480943 36.39453125 153.25 C36.6678125 152.47011719 36.94109375 151.69023437 37.22265625 150.88671875 C39.26531966 145.12921159 39.26531966 145.12921159 40.39453125 144 C42.81859631 131.071653 42.00489791 116.80557227 39.39453125 104 C39.10255859 102.49179687 39.10255859 102.49179687 38.8046875 100.953125 C35.38037415 85.31069951 26.47104066 71.43359205 14.39453125 61 C13.47929688 60.46246094 12.5640625 59.92492187 11.62109375 59.37109375 C10.51894531 58.69240234 10.51894531 58.69240234 9.39453125 58 C9.39453125 57.34 9.39453125 56.68 9.39453125 56 C8.34265625 55.731875 7.29078125 55.46375 6.20703125 55.1875 C2.39453125 54 2.39453125 54 0.046875 52.51953125 C-3.79067897 50.32099149 -7.75961688 49.72451599 -12.05859375 48.84375 C-12.8990625 48.5653125 -13.73953125 48.286875 -14.60546875 48 C-14.93546875 47.01 -15.26546875 46.02 -15.60546875 45 C-38.15734982 44.13191556 -38.15734982 44.13191556 -59.60546875 50 C-60.92546875 50 -62.24546875 50 -63.60546875 50 C-63.60546875 50.66 -63.60546875 51.32 -63.60546875 52 C-64.57484375 52.20625 -65.54421875 52.4125 -66.54296875 52.625 C-80.52447684 56.69592103 -94.54218999 71.70466289 -101.60546875 84 C-103.73788119 88.86550444 -105.17930671 93.88775763 -106.60546875 99 C-106.88648438 100.00675781 -107.1675 101.01351562 -107.45703125 102.05078125 C-109.46765858 110.52994196 -109.92550899 118.68097612 -109.98046875 127.375 C-110.00101318 129.03269409 -110.00101318 129.03269409 -110.02197266 130.72387695 C-109.98901536 136.62902292 -109.44694755 141.53283099 -107.3359375 147.05664062 C-106.35126394 149.67629355 -105.87145846 152.30667794 -105.41796875 155.0625 C-105.25941406 156.00222656 -105.10085938 156.94195312 -104.9375 157.91015625 C-104.82792969 158.59980469 -104.71835937 159.28945313 -104.60546875 160 C-103.94546875 160 -103.28546875 160 -102.60546875 160 C-102.25355469 160.68964844 -101.90164063 161.37929688 -101.5390625 162.08984375 C-94.15050302 176.15318543 -83.783321 189.07693571 -68.60546875 195 C-66.93484375 195.99 -66.93484375 195.99 -65.23046875 197 C-61.80479304 199.0007718 -58.45779568 200.00370855 -54.60546875 201 C-53.18759907 201.51754939 -51.77100444 202.03860067 -50.35546875 202.5625 C-44.66722235 204.45834483 -44.66722235 204.45834483 -34.60546875 205 C-34.60546875 178.93 -34.60546875 152.86 -34.60546875 126 C-30.46628541 128.06959167 -29.33971531 129.43719387 -26.60546875 133 C-24.95407161 134.68179756 -23.28399585 136.34527877 -21.60546875 138 C-20.48358698 139.11820321 -19.36247686 140.23718092 -18.24197388 141.35676575 C-16.94664716 142.64907028 -15.65130741 143.94136175 -14.35595703 145.23364258 C-7.10587319 152.46735278 0.14163534 159.70363773 7.38770866 166.94136524 C11.76544832 171.31388405 16.14411874 175.68546236 20.52490234 180.05493164 C24.77335005 184.29248051 29.0193199 188.53249787 33.26361465 192.77420616 C34.87577107 194.38452312 36.48880346 195.99396363 38.10274887 197.60248756 C40.36626833 199.85870188 42.62659191 202.11807362 44.88623047 204.37817383 C45.54516296 205.03351105 46.20409546 205.68884827 46.88299561 206.36404419 C50.68155451 210.17095729 54.29122327 214.08742538 57.78966808 218.17239094 C60.51912558 221.28068163 63.47015993 224.15939742 66.421875 227.0546875 C67.72082843 228.34101931 69.01965303 229.62748123 70.31835938 230.9140625 C72.34003335 232.91074087 74.36329892 234.90575922 76.38891602 236.8984375 C78.36254375 238.84205077 80.33005854 240.7916855 82.296875 242.7421875 C83.21544533 243.64056839 83.21544533 243.64056839 84.15257263 244.55709839 C85.60482677 246.00055908 87.00531138 247.49577628 88.39453125 249 C88.39453125 249.66 88.39453125 250.32 88.39453125 251 C80.78247161 251.30622297 73.17201713 251.51519403 65.55517578 251.65917969 C62.96896021 251.71924163 60.38314727 251.80092295 57.79833984 251.90527344 C33.955545 252.84316973 33.955545 252.84316973 27.41912842 246.89776611 C25.17591213 244.42013831 23.28487493 241.7523613 21.39453125 239 C19.75866 237.3030967 18.09606574 235.63105362 16.39453125 234 C14.77629125 232.28399669 13.1716662 230.55503516 11.58203125 228.8125 C10.79183594 227.95269531 10.00164062 227.09289062 9.1875 226.20703125 C7.39453125 224 7.39453125 224 7.39453125 222 C6.40453125 222 5.41453125 222 4.39453125 222 C4.39453125 229.59 4.39453125 237.18 4.39453125 245 C-8.23454208 249.20969111 -18.65413305 251.48083923 -31.86010742 251.33618164 C-34.16816059 251.31249803 -36.47505815 251.31565624 -38.78320312 251.32226562 C-46.92217462 251.3055666 -54.64292502 250.89388208 -62.60546875 249 C-62.60546875 248.34 -62.60546875 247.68 -62.60546875 247 C-63.58128906 246.87882813 -64.55710937 246.75765625 -65.5625 246.6328125 C-67.47095703 246.38144531 -67.47095703 246.38144531 -69.41796875 246.125 C-71.31482422 245.88136719 -71.31482422 245.88136719 -73.25 245.6328125 C-76.60546875 245 -76.60546875 245 -79.60546875 243 C-80.84296875 242.649375 -82.08046875 242.29875 -83.35546875 241.9375 C-90.73045994 239.55924551 -97.13209321 235.16386859 -103.60546875 231 C-104.54519531 230.40445313 -105.48492188 229.80890625 -106.453125 229.1953125 C-112.58407306 225.03403554 -117.79910611 220.07755845 -123.04296875 214.875 C-123.7299585 214.1936499 -124.41694824 213.5122998 -125.12475586 212.81030273 C-127.99577999 209.89743831 -130.68079552 207.08521308 -132.890625 203.6328125 C-134.49771651 200.78694689 -134.49771651 200.78694689 -137.60546875 199 C-138.78125 196.93359375 -138.78125 196.93359375 -139.91796875 194.4375 C-141.59300579 190.91084069 -143.37989027 187.78555285 -145.66796875 184.625 C-148.66123663 180.29203422 -150.15324961 175.90649972 -151.671875 170.890625 C-152.49419547 168.34452815 -153.46455927 166.12957196 -154.66796875 163.75 C-165.20836971 141.00929242 -163.13774293 104.64527878 -154.74609375 81.64453125 C-154.08177316 80.07460382 -153.35355024 78.53178591 -152.60546875 77 C-151.94546875 77 -151.28546875 77 -150.60546875 77 C-150.51007813 75.81535156 -150.4146875 74.63070312 -150.31640625 73.41015625 C-147.79152593 53.52999999 -124.98613749 32.1070351 -110.07202148 20.49902344 C-99.80726695 12.84026187 -88.17815859 5.69599118 -75.671875 2.54296875 C-73.63627452 2.00809452 -71.83436268 1.30093023 -69.91796875 0.4375 C-50.90437662 -7.81368149 -18.9900784 -8.79949118 0 0 Z " fill="#FCD700" transform="translate(659.60546875,338)"/>
<path d="M0 0 C18.48 0 36.96 0 56 0 C56 83.82 56 167.64 56 254 C37.52 254 19.04 254 0 254 C-0.10152872 218.97259084 0.28161843 184.02110138 1 149 C-27.71 149 -56.42 149 -86 149 C-86 183.65 -86 218.3 -86 254 C-104.15 254 -122.3 254 -141 254 C-141 202.52 -141 151.04 -141 98 C-94.14 98 -47.28 98 1 98 C0.67286272 75.10165621 0.67286272 75.10165621 0.34179688 52.20336914 C0.27832031 47.68249512 0.27832031 47.68249512 0.24865723 45.53807068 C0.22846889 44.1016601 0.20761976 42.66525868 0.18615723 41.22886658 C-0.01830915 27.4833486 0 13.75007893 0 0 Z " fill="#FCD700" transform="translate(431,335)"/>
<path d="M0 0 C18.48 0 36.96 0 56 0 C56 27.72 56 55.44 56 84 C37.52 84 19.04 84 0 84 C0 56.28 0 28.56 0 0 Z " fill="#FED700" transform="translate(289,335)"/>
<path d="M0 0 C1.12728516 -0.01836914 1.12728516 -0.01836914 2.27734375 -0.03710938 C6.83361483 -0.04903679 10.45947281 0.45899144 14.75 2.1875 C14.75 2.8475 14.75 3.5075 14.75 4.1875 C15.306875 4.414375 15.86375 4.64125 16.4375 4.875 C21.60026862 7.80522003 24.47699464 11.80202707 26.75 17.1875 C27.76710822 25.08612419 27.64518124 32.64996154 22.75 39.1875 C20.375 41.875 20.375 41.875 17.75 44.1875 C17.26273438 44.64253906 16.77546875 45.09757813 16.2734375 45.56640625 C13.1361802 48.38993782 10.96205911 49.90031415 6.75 50.1875 C6.0178125 50.23777344 5.285625 50.28804687 4.53125 50.33984375 C-2.3262959 50.60440956 -8.63617635 49.95143232 -14.2265625 45.67578125 C-19.08298534 41.07767877 -23.26624165 35.91272163 -23.81640625 29.06640625 C-23.84406409 27.62786943 -23.84210005 26.18849816 -23.8125 24.75 C-23.80154297 23.9986377 -23.79058594 23.24727539 -23.77929688 22.47314453 C-23.49223316 15.14823551 -21.42208254 11.2746702 -16.20703125 6.19921875 C-10.64065979 1.1398028 -7.54382973 0.00633935 0 0 Z " fill="#060502" transform="translate(523.25,639.8125)"/>
<path d="M0 0 C19 0 19 0 27 5 C28.2866645 7.573329 28.16824551 9.50223038 28.1875 12.375 C28.20167969 13.33148437 28.21585938 14.28796875 28.23046875 15.2734375 C27.99237227 18.09023997 27.56309355 19.66314917 26 22 C20.85714286 25 20.85714286 25 18 25 C19.10164118 27.23044611 20.20621894 29.45935646 21.3125 31.6875 C21.7755957 32.62625977 21.7755957 32.62625977 22.24804688 33.58398438 C23.64386609 36.39031564 25.06883237 39.11016287 26.73046875 41.76953125 C28 44 28 44 28 47 C25.69 47 23.38 47 21 47 C20.34 45.02 19.68 43.04 19 41 C18.34 41 17.68 41 17 41 C16.18618205 39.06305322 15.37399084 37.12542289 14.5625 35.1875 C14.11003906 34.10855469 13.65757812 33.02960937 13.19140625 31.91796875 C12.39624987 29.9704874 11.66520352 27.99561057 11 26 C9.68 26 8.36 26 7 26 C7 32.93 7 39.86 7 47 C4.69 47 2.38 47 0 47 C0 31.49 0 15.98 0 0 Z " fill="#DEC103" transform="translate(570,641)"/>
<path d="M0 0 C1.12728516 -0.01836914 1.12728516 -0.01836914 2.27734375 -0.03710938 C6.83361483 -0.04903679 10.45947281 0.45899144 14.75 2.1875 C14.75 2.8475 14.75 3.5075 14.75 4.1875 C15.306875 4.414375 15.86375 4.64125 16.4375 4.875 C21.60026862 7.80522003 24.47699464 11.80202707 26.75 17.1875 C27.76710822 25.08612419 27.64518124 32.64996154 22.75 39.1875 C20.375 41.875 20.375 41.875 17.75 44.1875 C17.26273438 44.64253906 16.77546875 45.09757813 16.2734375 45.56640625 C13.1361802 48.38993782 10.96205911 49.90031415 6.75 50.1875 C6.0178125 50.23777344 5.285625 50.28804687 4.53125 50.33984375 C-2.3262959 50.60440956 -8.63617635 49.95143232 -14.2265625 45.67578125 C-19.08298534 41.07767877 -23.26624165 35.91272163 -23.81640625 29.06640625 C-23.84406409 27.62786943 -23.84210005 26.18849816 -23.8125 24.75 C-23.80154297 23.9986377 -23.79058594 23.24727539 -23.77929688 22.47314453 C-23.49223316 15.14823551 -21.42208254 11.2746702 -16.20703125 6.19921875 C-10.64065979 1.1398028 -7.54382973 0.00633935 0 0 Z M-11.25 10.1875 C-12.0853125 10.82945312 -12.0853125 10.82945312 -12.9375 11.484375 C-17.15784358 15.27486877 -17.80973203 18.91525307 -18.125 24.5 C-17.83488381 31.30086335 -16.25515649 35.39766456 -11.6015625 40.35546875 C-7.9530634 43.1979041 -4.80136643 43.94838836 -0.25 44.1875 C0.925625 44.331875 2.10125 44.47625 3.3125 44.625 C9.33354347 43.85868538 13.75582932 40.59468522 17.6875 36.0625 C21.46391163 30.79841107 21.39898956 25.47007945 20.75 19.1875 C18.2725765 14.23265301 14.5236917 9.54121301 9.4609375 7.0703125 C2.24669556 4.72100605 -5.55477836 4.8990799 -11.25 10.1875 Z " fill="#F1D502" transform="translate(523.25,639.8125)"/>
<path d="M0 0 C21 0 21 0 24 2 C24 2.66 24 3.32 24 4 C24.639375 4.309375 25.27875 4.61875 25.9375 4.9375 C28 6 28 6 29 7 C29.58448496 12.96849063 29.44675669 17.89369379 26 23 C23 25 23 25 20 25 C20 25.66 20 26.32 20 27 C15.38 27 10.76 27 6 27 C6 34.26 6 41.52 6 49 C4.02 49 2.04 49 0 49 C0 32.83 0 16.66 0 0 Z " fill="#D2B504" transform="translate(452,640)"/>
<path d="M0 0 C46.86 0.33 93.72 0.66 142 1 C142 1.66 142 2.32 142 3 C125.22281437 3.02340475 108.44563408 3.04101631 91.66843605 3.05181217 C83.87774737 3.05695906 76.08706887 3.06397103 68.29638672 3.07543945 C61.50264745 3.0854355 54.70891554 3.09186511 47.91516912 3.09408849 C44.32102697 3.09538727 40.7269059 3.09842004 37.13277054 3.10573006 C33.11145357 3.11384187 29.09017279 3.11398798 25.06884766 3.11352539 C23.88920441 3.11712067 22.70956116 3.12071594 21.49417114 3.12442017 C20.38658447 3.1230455 19.2789978 3.12167084 18.1378479 3.12025452 C17.18840113 3.12117631 16.23895435 3.1220981 15.26073647 3.12304783 C10.82782269 2.95576647 6.41405356 2.44140536 2 2 C2.33 51.5 2.66 101 3 152 C27.75 152.495 27.75 152.495 53 153 C53 119.34 53 85.68 53 51 C53.33 51 53.66 51 54 51 C54 85.32 54 119.64 54 155 C36.18 155 18.36 155 0 155 C0 103.85 0 52.7 0 0 Z " fill="#FCEE00" transform="translate(290,433)"/>
<path d="M0 0 C18.48 0 36.96 0 56 0 C56 27.72 56 55.44 56 84 C37.52 84 19.04 84 0 84 C0 56.28 0 28.56 0 0 Z M3 3 C3 28.74 3 54.48 3 81 C19.83 81 36.66 81 54 81 C54 55.26 54 29.52 54 3 C37.17 3 20.34 3 3 3 Z " fill="#E1D001" transform="translate(289,335)"/>
<path d="M0 0 C1.73056641 -0.02513672 1.73056641 -0.02513672 3.49609375 -0.05078125 C6.86902116 0.34881397 7.48016958 0.79714674 9.5625 3.3125 C10.5525 3.6425 11.5425 3.9725 12.5625 4.3125 C12.5625 5.3025 12.5625 6.2925 12.5625 7.3125 C11.5725 7.3125 10.5825 7.3125 9.5625 7.3125 C9.5625 7.9725 9.5625 8.6325 9.5625 9.3125 C7.9125 9.3125 6.2625 9.3125 4.5625 9.3125 C4.5625 8.3225 4.5625 7.3325 4.5625 6.3125 C-1.02250567 6.51148708 -1.02250567 6.51148708 -5.4375 9.3125 C-6.10457548 12.72749591 -6.10457548 12.72749591 -5.4375 16.3125 C-2.29375191 19.22046698 0.51587971 20.3843892 4.625 21.1875 C9.35574413 22.21158829 10.95791984 24.28723976 13.5625 28.3125 C14.375 30.6875 14.375 30.6875 14.5625 33.3125 C14.68625 34.611875 14.81 35.91125 14.9375 37.25 C14.91258715 40.53226748 14.24340817 42.25470837 12.1875 44.8125 C9.5625 47.3125 9.5625 47.3125 7.5625 47.3125 C7.5625 47.9725 7.5625 48.6325 7.5625 49.3125 C-4.57023543 50.3860426 -4.57023543 50.3860426 -9.1484375 47.75390625 C-11.06902243 46.03092663 -12.80076748 44.30504393 -14.4375 42.3125 C-13.7775 40.6625 -13.1175 39.0125 -12.4375 37.3125 C-11.4475 37.3125 -10.4575 37.3125 -9.4375 37.3125 C-8.674375 38.3025 -7.91125 39.2925 -7.125 40.3125 C-5.12207114 42.85676099 -4.78677921 43.24701015 -1.4375 43.875 C1.85800775 43.2570923 3.87962904 42.30548985 6.5625 40.3125 C7.96185013 37.51379973 7.81515405 35.40751208 7.5625 32.3125 C5.29339824 29.28452646 2.72542767 28.53280363 -0.8125 27.4375 C-5.65240858 25.77518001 -8.22497057 24.2504393 -11.4375 20.3125 C-12.0975 19.6525 -12.7575 18.9925 -13.4375 18.3125 C-14.00529458 14.60091649 -13.97948571 11.02590706 -13.4375 7.3125 C-11.0625 4.25 -11.0625 4.25 -8.4375 2.3125 C-5.65940605 -0.46559395 -3.86994797 0.01294297 0 0 Z " fill="#ECD102" transform="translate(416.4375,639.6875)"/>
<path d="M0 0 C13.2 0 26.4 0 40 0 C40 1.98 40 3.96 40 6 C34.39 6 28.78 6 23 6 C23 19.86 23 33.72 23 48 C20.69 48 18.38 48 16 48 C16 34.14 16 20.28 16 6 C10.72 6 5.44 6 0 6 C0 4.02 0 2.04 0 0 Z " fill="#D7BA03" transform="translate(615,640)"/>
<path d="M0 0 C4.95 0 9.9 0 15 0 C15 0.66 15 1.32 15 2 C11.7 2 8.4 2 5 2 C5.14019692 4.81288705 5.28687955 7.62516885 5.4375 10.4375 C5.47681641 11.23994141 5.51613281 12.04238281 5.55664062 12.86914062 C5.4054296 16.75239561 5.4054296 16.75239561 7 20 C8.45001991 20.25996373 9.91122093 20.45919978 11.375 20.625 C12.16648437 20.72039063 12.95796875 20.81578125 13.7734375 20.9140625 C16.17434158 21.13776452 16.17434158 21.13776452 19 20 C18.67 20.99 18.34 21.98 18 23 C14 24 14 24 5 24 C5 31.26 5 38.52 5 46 C3.35 46 1.7 46 0 46 C0 30.82 0 15.64 0 0 Z " fill="#F8DD01" transform="translate(453,642)"/>
<path d="M0 0 C9.50226929 -0.44931921 9.50226929 -0.44931921 14.125 0.9375 C16.67986555 3.7478521 16.92225133 6.10929357 17.140625 9.83984375 C17 12 17 12 15.75 14.5 C12.66840234 17.14136943 9.76361785 17.13633708 5.875 17.125 C4.98554688 17.12757813 4.09609375 17.13015625 3.1796875 17.1328125 C1 17 1 17 0 16 C-0.07319621 13.30345146 -0.09242537 10.63308542 -0.0625 7.9375 C-0.05798828 7.17888672 -0.05347656 6.42027344 -0.04882812 5.63867188 C-0.0370068 3.75908129 -0.01907078 1.87953101 0 0 Z " fill="#171103" transform="translate(458,645)"/>
<path d="M0 0 C4.62 0 9.24 0 14 0 C14.33 0.66 14.66 1.32 15 2 C11.7 2 8.4 2 5 2 C5 16.19 5 30.38 5 45 C3.35 45 1.7 45 0 45 C0 30.15 0 15.3 0 0 Z " fill="#FEE602" transform="translate(571,642)"/>
<path d="M0 0 C10.45081967 -0.36885246 10.45081967 -0.36885246 12.83203125 1.23046875 C14.30285386 3.45883879 14.40156715 4.84328474 14.375 7.5 C14.38273438 8.2734375 14.39046875 9.046875 14.3984375 9.84375 C14 12 14 12 12.83203125 13.76953125 C9.12966933 16.25619224 4.27207136 15.15077899 0 15 C0 10.05 0 5.1 0 0 Z " fill="#070603" transform="translate(577,646)"/>
<path d="M0 0 C2.97 0.495 2.97 0.495 6 1 C8.1155179 7.34655369 8.23053251 16.34553061 6.09375 22.69140625 C3.53267818 27.01731922 0.3525015 29.57069684 -4 32 C-4.99 31.01 -5.98 30.02 -7 29 C-5.44227788 26.2739863 -3.85414598 23.81982739 -1.875 21.375 C0.94737642 17.79998987 1.13710328 15.04269855 1.125 10.625 C1.12757813 9.68914063 1.13015625 8.75328125 1.1328125 7.7890625 C1.00441441 5.09270253 0.60188709 2.62728491 0 0 Z " fill="#F3D702" transform="translate(542,654)"/>
<path d="M0 0 C0.66 0 1.32 0 2 0 C1.34 5.28 0.68 10.56 0 16 C-0.66 16 -1.32 16 -2 16 C-1.84770474 40.31742953 -1.84770474 40.31742953 3 64 C2.01 64.495 2.01 64.495 1 65 C0.31760646 63.00531118 -0.34370484 61.00342734 -1 59 C-1.37898438 57.85724609 -1.37898438 57.85724609 -1.765625 56.69140625 C-2.02859375 55.86511719 -2.2915625 55.03882813 -2.5625 54.1875 C-2.81128906 53.41792969 -3.06007813 52.64835937 -3.31640625 51.85546875 C-4.9957292 44.84069687 -5.19320942 37.68530852 -5.1875 30.5 C-5.18814453 29.6450293 -5.18878906 28.79005859 -5.18945312 27.90917969 C-5.12123505 19.51525596 -4.20388356 11.29819739 -3 3 C-2.34 3 -1.68 3 -1 3 C-0.67 2.01 -0.34 1.02 0 0 Z " fill="#D9C404" transform="translate(504,432)"/>
<path d="M0 0 C0 0.99 0 1.98 0 3 C0.66 3.33 1.32 3.66 2 4 C2 4.66 2 5.32 2 6 C-3.45699699 9.63799799 -9.60331709 9.53936528 -16 9 C-24.20118343 7.19822485 -24.20118343 7.19822485 -27 3 C-24.525 3.99 -24.525 3.99 -22 5 C-21.34 3.68 -20.68 2.36 -20 1 C-19.03578125 1.09539063 -18.0715625 1.19078125 -17.078125 1.2890625 C-15.81484375 1.39992188 -14.5515625 1.51078125 -13.25 1.625 C-11.99703125 1.74101563 -10.7440625 1.85703125 -9.453125 1.9765625 C-5.6947368 2.00207192 -3.45344489 0 0 0 Z " fill="#AC9104" transform="translate(536,681)"/>
<path d="M0 0 C1.48143456 2.96286911 0.3787488 4.80756023 -0.4375 8 C-2.11402473 15.43215293 -2.34126217 22.77488456 -2.375 30.375 C-2.38845459 31.47972656 -2.40190918 32.58445312 -2.41577148 33.72265625 C-2.38415916 39.62837193 -1.84164198 44.532404 0.26953125 50.05664062 C1.25420481 52.67629355 1.73401029 55.30667794 2.1875 58.0625 C2.42533203 59.47208984 2.42533203 59.47208984 2.66796875 60.91015625 C2.77753906 61.59980469 2.88710938 62.28945313 3 63 C3.66 63 4.32 63 5 63 C6.0076952 64.7664657 7.00591714 66.53833823 8 68.3125 C8.8353125 69.79169922 8.8353125 69.79169922 9.6875 71.30078125 C11 74 11 74 11 77 C5.67756384 75.22585461 3.42516557 69.83227779 1 65 C0.24628033 62.04824069 -0.22011583 59.24381277 -0.515625 56.21484375 C-0.81398223 53.62255122 -0.81398223 53.62255122 -4 52 C-4.30522429 49.24088756 -4.41993363 46.71061572 -4.3984375 43.94921875 C-4.40130768 43.13943069 -4.40417786 42.32964264 -4.40713501 41.49531555 C-4.40918051 39.77283026 -4.40361681 38.05032199 -4.39111328 36.32788086 C-4.37529359 33.73560934 -4.39082429 31.14495215 -4.41015625 28.55273438 C-4.42139464 19.02911864 -4.00811289 10.13439157 -1 1 C-0.67 0.67 -0.34 0.34 0 0 Z " fill="#B7A005" transform="translate(552,435)"/>
<path d="M0 0 C0.73283203 0.07831055 1.46566406 0.15662109 2.22070312 0.23730469 C3.97093198 0.45671378 5.70741943 0.78110668 7.4375 1.125 C7.9325 2.115 7.9325 2.115 8.4375 3.125 C7.86787033 3.12055878 7.29824066 3.11611755 6.71134949 3.11154175 C0.79058334 3.06734564 -5.13013606 3.0371491 -11.05102539 3.01513672 C-13.26165673 3.00506994 -15.47227472 2.99141552 -17.68286133 2.97412109 C-20.85761811 2.94990262 -24.03219906 2.93852373 -27.20703125 2.9296875 C-28.19774124 2.91936493 -29.18845123 2.90904236 -30.20918274 2.89840698 C-31.12991074 2.89825592 -32.05063873 2.89810486 -32.99926758 2.89794922 C-33.8097908 2.893508 -34.62031403 2.88906677 -35.45539856 2.88449097 C-37.86544879 2.99708191 -37.86544879 2.99708191 -40.5625 5.125 C-42.796875 5.28515625 -42.796875 5.28515625 -45.3125 5.1875 C-49.54312562 5.09445105 -53.39865369 5.40085281 -57.5625 6.125 C-42.43830173 -3.95779884 -17.30784552 -1.90107379 0 0 Z " fill="#A58C0F" transform="translate(644.5625,333.875)"/>
<path d="M0 0 C0.33 0 0.66 0 1 0 C1 5.28 1 10.56 1 16 C2.32 16 3.64 16 5 16 C5 12.04 5 8.08 5 4 C5.33 4 5.66 4 6 4 C5.99097656 4.76183594 5.98195313 5.52367187 5.97265625 6.30859375 C6.24561756 15.81476792 9.44370409 20.44370409 16 27 C15.34 27.99 14.68 28.98 14 30 C7.34991452 28.57498168 4.5212211 24.6380036 0.8359375 19.3203125 C-0.47609157 15.67851218 -0.20769289 12.08567797 -0.125 8.25 C-0.11597656 7.45722656 -0.10695313 6.66445313 -0.09765625 5.84765625 C-0.07417012 3.89830719 -0.03830137 1.94911425 0 0 Z " fill="#F5DA02" transform="translate(500,656)"/>
<path d="M0 0 C3.01125 -0.0825 6.0225 -0.165 9.125 -0.25 C10.06230957 -0.28641602 10.99961914 -0.32283203 11.96533203 -0.36035156 C17.6216401 -0.43504615 20.69677276 0.24846856 25 4 C25.875 6.25 25.875 6.25 26 8 C25.34 8 24.68 8 24 8 C24.04125 9.27875 24.0825 10.5575 24.125 11.875 C24.1953125 14.0546875 24.1953125 14.0546875 24 16 C23.34 16.66 22.68 17.32 22 18 C21.96261719 17.38511719 21.92523437 16.77023437 21.88671875 16.13671875 C21.78810547 14.92435547 21.78810547 14.92435547 21.6875 13.6875 C21.62949219 12.88699219 21.57148437 12.08648438 21.51171875 11.26171875 C20.90820795 8.59429317 20.10614406 7.69317464 18 6 C15.90010348 4.82425289 15.90010348 4.82425289 14 4 C14.33 3.34 14.66 2.68 15 2 C8.07 1.505 8.07 1.505 1 1 C1 8.26 1 15.52 1 23 C0.67 23 0.34 23 0 23 C0 15.41 0 7.82 0 0 Z " fill="#E3C804" transform="translate(570,641)"/>
<path d="M0 0 C0.66 0 1.32 0 2 0 C2.06058594 1.14597656 2.12117187 2.29195312 2.18359375 3.47265625 C2.26806989 5.00261297 2.35271427 6.53256041 2.4375 8.0625 C2.47681641 8.81466797 2.51613281 9.56683594 2.55664062 10.34179688 C2.75060255 13.78835113 3.01530406 17.09021342 3.59375 20.5 C4.09360343 24.80642959 3.65210204 28.66380077 3.0625 32.9375 C2.96259766 33.71673828 2.86269531 34.49597656 2.75976562 35.29882812 C2.51479023 37.20030381 2.25856108 39.100324 2 41 C1.34 41 0.68 41 0 41 C0 27.47 0 13.94 0 0 Z " fill="#FBD600" transform="translate(572,644)"/>
<path d="M0 0 C4.17443363 3.50074982 8.3145494 6.97950843 12 11 C12 11.66 12 12.32 12 13 C-6.15 13 -24.3 13 -43 13 C-43 12.67 -43 12.34 -43 12 C-25.84 11.67 -8.68 11.34 9 11 C6.525 10.01 6.525 10.01 4 9 C0 3.91891892 0 3.91891892 0 0 Z " fill="#CDB107" transform="translate(736,576)"/>
<path d="M0 0 C1.77669223 3.06156654 2.24050818 5.24036215 2.1953125 8.765625 C2.18886719 9.65507813 2.18242188 10.54453125 2.17578125 11.4609375 C2.15902344 12.38132812 2.14226563 13.30171875 2.125 14.25 C2.11597656 15.18585937 2.10695313 16.12171875 2.09765625 17.0859375 C2.07413636 19.39088657 2.04126853 21.6953116 2 24 C0.68 24 -0.64 24 -2 24 C-2 16.41 -2 8.82 -2 1 C-1.34 0.67 -0.68 0.34 0 0 Z " fill="#FDDF00" transform="translate(635,663)"/>
<path d="M0 0 C0.78826172 0.01353516 1.57652344 0.02707031 2.38867188 0.04101562 C4.32191169 0.07616544 6.25479682 0.12996639 8.1875 0.1875 C8.1875 0.5175 8.1875 0.8475 8.1875 1.1875 C3.2375 1.5175 -1.7125 1.8475 -6.8125 2.1875 C-6.1525 2.5175 -5.4925 2.8475 -4.8125 3.1875 C-4.8125 3.8475 -4.8125 4.5075 -4.8125 5.1875 C-1.5125 5.1875 1.7875 5.1875 5.1875 5.1875 C5.1875 5.5175 5.1875 5.8475 5.1875 6.1875 C4.10082031 6.22617187 4.10082031 6.22617187 2.9921875 6.265625 C-3.22263351 6.63022783 -6.98122769 7.22337913 -11.8125 11.1875 C-12.8025 11.6825 -12.8025 11.6825 -13.8125 12.1875 C-13.4825 10.8675 -13.1525 9.5475 -12.8125 8.1875 C-13.4725 7.8575 -14.1325 7.5275 -14.8125 7.1875 C-14.625 5.375 -14.625 5.375 -13.8125 3.1875 C-9.39958461 -0.39799376 -5.4024215 -0.17660892 0 0 Z " fill="#DCBD04" transform="translate(523.8125,639.8125)"/>
<path d="M0 0 C0.99 0 1.98 0 3 0 C4.20320898 1.5284006 5.40530365 3.05774863 6.59375 4.59765625 C8.77434951 6.77219854 11.02249518 6.8615114 14 7 C14 7.33 14 7.66 14 8 C12.02 8 10.04 8 8 8 C8.33 8.66 8.66 9.32 9 10 C11.58605332 10.4683265 11.58605332 10.4683265 14.5625 10.625 C15.57441406 10.69976563 16.58632813 10.77453125 17.62890625 10.8515625 C18.80259766 10.92503906 18.80259766 10.92503906 20 11 C20 11.33 20 11.66 20 12 C7.86726457 13.0735426 7.86726457 13.0735426 3.2890625 10.44140625 C1.36847757 8.71842663 -0.36326748 6.99254393 -2 5 C-1.34 3.35 -0.68 1.7 0 0 Z " fill="#DBC005" transform="translate(404,677)"/>
<path d="M0 0 C2.10353495 -0.0810206 4.20795952 -0.13919907 6.3125 -0.1875 C7.48425781 -0.22230469 8.65601563 -0.25710938 9.86328125 -0.29296875 C13 0 13 0 14.73046875 1.44921875 C15.35888672 2.21685547 15.35888672 2.21685547 16 3 C16.99 3.33 17.98 3.66 19 4 C19 4.99 19 5.98 19 7 C18.01 7 17.02 7 16 7 C16 7.66 16 8.32 16 9 C14.35 9 12.7 9 11 9 C11 8.01 11 7.02 11 6 C9.88625 6.061875 8.7725 6.12375 7.625 6.1875 C6.42875 6.125625 5.2325 6.06375 4 6 C3.34 5.01 2.68 4.02 2 3 C4.97 3 7.94 3 11 3 C11 2.34 11 1.68 11 1 C5.06 1.495 5.06 1.495 -1 2 C-0.67 1.34 -0.34 0.68 0 0 Z " fill="#C7AA05" transform="translate(410,640)"/>
<path d="M0 0 C1.32 0 2.64 0 4 0 C4 0.66 4 1.32 4 2 C4.53625 2.20625 5.0725 2.4125 5.625 2.625 C8.91978009 4.53250426 11.59363628 7.04819384 14 10 C14 10.66 14 11.32 14 12 C14.99 12.33 15.98 12.66 17 13 C17 13.66 17 14.32 17 15 C17.639375 15.226875 18.27875 15.45375 18.9375 15.6875 C21 17 21 17 21.75 19.625 C21.8325 20.40875 21.915 21.1925 22 22 C17.07703129 17.88078128 12.49352466 13.57952513 8 9 C7.0925 8.113125 6.185 7.22625 5.25 6.3125 C3.29214016 4.30025517 1.61296471 2.29210775 0 0 Z " fill="#DEC604" transform="translate(700,512)"/>
<path d="M0 0 C-1.65 0.33 -3.3 0.66 -5 1 C-5 1.66 -5 2.32 -5 3 C-5.969375 3.20625 -6.93875 3.4125 -7.9375 3.625 C-12.20543871 4.81828082 -15.48736969 7.129663 -19.08203125 9.66015625 C-21 11 -21 11 -23 12 C-23 11.34 -23 10.68 -23 10 C-24.32 10.33 -25.64 10.66 -27 11 C-27 10.34 -27 9.68 -27 9 C-22.42074602 4.6901139 -18.27018628 3 -12 3 C-12 2.34 -12 1.68 -12 1 C-10.37681021 0.63762737 -8.7513642 0.28534843 -7.125 -0.0625 C-6.22007812 -0.25972656 -5.31515625 -0.45695312 -4.3828125 -0.66015625 C-2 -1 -2 -1 0 0 Z " fill="#EED202" transform="translate(601,387)"/>
<path d="M0 0 C8.41415902 12.62123853 5.29663455 33.66570577 5 48 C4.67 48 4.34 48 4 48 C4 41.07 4 34.14 4 27 C3.34 26.67 2.68 26.34 2 26 C2.03480469 25.19175781 2.06960938 24.38351562 2.10546875 23.55078125 C2.13253906 22.48214844 2.15960937 21.41351563 2.1875 20.3125 C2.22230469 19.25675781 2.25710938 18.20101563 2.29296875 17.11328125 C1.96296609 13.60645295 0.8075498 11.96130499 -1 9 C-1.07421875 6.54296875 -1.07421875 6.54296875 -0.6875 4.1875 C-0.50767578 3.00220703 -0.50767578 3.00220703 -0.32421875 1.79296875 C-0.21722656 1.20128906 -0.11023438 0.60960937 0 0 Z " fill="#AC8F07" transform="translate(746,426)"/>
<path d="M0 0 C1.15113281 -0.01417969 2.30226563 -0.02835938 3.48828125 -0.04296875 C6.51162237 0.17482994 8.15315871 0.6043189 10.6875 2.1875 C10.3575 2.5175 10.0275 2.8475 9.6875 3.1875 C10.6775 3.1875 11.6675 3.1875 12.6875 3.1875 C12.6875 4.1775 12.6875 5.1675 12.6875 6.1875 C7.0775 5.5275 1.4675 4.8675 -4.3125 4.1875 C-4.3125 3.5275 -4.3125 2.8675 -4.3125 2.1875 C-5.3025 1.8575 -6.2925 1.5275 -7.3125 1.1875 C-5.45615553 -0.66884447 -2.48420097 0.01381647 0 0 Z " fill="#FDE901" transform="translate(523.3125,640.8125)"/>
<path d="M0 0 C4.95 0 9.9 0 15 0 C15 0.66 15 1.32 15 2 C11.7 2.33 8.4 2.66 5 3 C4.87625 3.928125 4.7525 4.85625 4.625 5.8125 C4 9 4 9 2 12 C1.34 12 0.68 12 0 12 C0 8.04 0 4.08 0 0 Z " fill="#FDE300" transform="translate(453,642)"/>
<path d="M0 0 C2 2 2 2 2 5 C2.66 5.33 3.32 5.66 4 6 C1 8 1 8 -2 8 C-2 8.66 -2 9.32 -2 10 C-6.62 10 -11.24 10 -16 10 C-16 9.67 -16 9.34 -16 9 C-15.07316406 8.87882813 -14.14632813 8.75765625 -13.19140625 8.6328125 C-11.99386719 8.46523438 -10.79632813 8.29765625 -9.5625 8.125 C-7.77005859 7.88136719 -7.77005859 7.88136719 -5.94140625 7.6328125 C-4.97074219 7.42398438 -4.00007813 7.21515625 -3 7 C-2.67 6.34 -2.34 5.68 -2 5 C-2.66 5 -3.32 5 -4 5 C-4.33 5.66 -4.66 6.32 -5 7 C-7.97 6.67 -10.94 6.34 -14 6 C-14 5.67 -14 5.34 -14 5 C-13.15695312 4.97421875 -12.31390625 4.9484375 -11.4453125 4.921875 C-10.34960938 4.86515625 -9.25390625 4.8084375 -8.125 4.75 C-7.03445313 4.70359375 -5.94390625 4.6571875 -4.8203125 4.609375 C-1.8667935 4.31153872 -1.8667935 4.31153872 -0.6171875 1.953125 C-0.41351563 1.30859375 -0.20984375 0.6640625 0 0 Z " fill="#CDAF04" transform="translate(474,657)"/>
<path d="M0 0 C2.45840605 -0.02691685 4.91651882 -0.04679802 7.375 -0.0625 C8.07367187 -0.07087891 8.77234375 -0.07925781 9.4921875 -0.08789062 C14.7734375 -0.11328125 14.7734375 -0.11328125 17 1 C17 1.66 17 2.32 17 3 C14.0668642 3.97771193 12.11821006 4.13419011 9.0625 4.125 C7.78052734 4.12886719 7.78052734 4.12886719 6.47265625 4.1328125 C4.17319148 4.00930254 2.20359652 3.64420687 0 3 C0 2.01 0 1.02 0 0 Z " fill="#F3DB01" transform="translate(517,685)"/>
<path d="M0 0 C2.97 0.495 2.97 0.495 6 1 C7.00496852 4.01490557 7.10335303 6.04181692 7.0625 9.1875 C7.05347656 10.08855469 7.04445313 10.98960937 7.03515625 11.91796875 C7.02355469 12.60503906 7.01195312 13.29210937 7 14 C6.34 13.01 5.68 12.02 5 11 C4.01 12.485 4.01 12.485 3 14 C0.88838269 4.58997722 0.88838269 4.58997722 0 0 Z " fill="#F9DD01" transform="translate(542,654)"/>
<path d="M0 0 C3 1 3 1 5.1875 4.1875 C8.04268347 10.12584738 7.32489659 16.57426744 7 23 C6.67 23 6.34 23 6 23 C5.67 17.72 5.34 12.44 5 7 C2.69 7 0.38 7 -2 7 C-3.9375 5 -3.9375 5 -5 3 C-2.6875 1.4375 -2.6875 1.4375 0 0 Z " fill="#CCB104" transform="translate(543,648)"/>
<path d="M0 0 C3.37423539 1.25608479 6.21363403 1.34957018 9.81054688 1.44140625 C10.79875679 1.47045547 10.79875679 1.47045547 11.80693054 1.50009155 C13.89524706 1.55950316 15.98361987 1.60611666 18.07226562 1.65234375 C19.49481468 1.69055907 20.91734147 1.72961284 22.33984375 1.76953125 C25.81294636 1.86517171 29.28621694 1.94934348 32.75976562 2.02734375 C32.75976562 2.35734375 32.75976562 2.68734375 32.75976562 3.02734375 C27.97665883 3.0773079 23.19370867 3.11332631 18.41040039 3.13720703 C16.78797759 3.14717732 15.16557233 3.16075844 13.54321289 3.17822266 C4.40490222 3.2740298 -4.29777434 3.2194018 -13.24023438 1.02734375 C-13.24023438 0.69734375 -13.24023438 0.36734375 -13.24023438 0.02734375 C-11.51300709 -0.19650007 -9.78327431 -0.40105594 -8.05273438 -0.59765625 C-6.60833984 -0.77167969 -6.60833984 -0.77167969 -5.13476562 -0.94921875 C-2.24023438 -0.97265625 -2.24023438 -0.97265625 0 0 Z " fill="#B09604" transform="translate(610.240234375,585.97265625)"/>
<path d="M0 0 C0.66 0.33 1.32 0.66 2 1 C-1.28711379 5.75558387 -3.91672163 9.11489606 -9 12 C-9.495 12.845625 -9.99 13.69125 -10.5 14.5625 C-12.3136133 17.50962161 -13.74643472 18.03272384 -17 19 C-15.60652624 15.84795019 -13.97514921 13.73828227 -11.5234375 11.328125 C-10.51796875 10.33232422 -10.51796875 10.33232422 -9.4921875 9.31640625 C-8.79351563 8.63449219 -8.09484375 7.95257813 -7.375 7.25 C-6.66859375 6.55261719 -5.9621875 5.85523438 -5.234375 5.13671875 C-3.49401297 3.41987512 -1.74915019 1.70788168 0 0 Z " fill="#CDB306" transform="translate(544,363)"/>
<path d="M0 0 C0.33 0 0.66 0 1 0 C1.06058594 1.13179687 1.12117188 2.26359375 1.18359375 3.4296875 C1.26799917 4.91147145 1.35264717 6.3932416 1.4375 7.875 C1.47681641 8.62136719 1.51613281 9.36773438 1.55664062 10.13671875 C1.71573624 14.19986864 1.71573624 14.19986864 3 18 C1.35 19.32 -0.3 20.64 -2 22 C-2 16.39 -2 10.78 -2 5 C-1.67 5 -1.34 5 -1 5 C-0.67 3.35 -0.34 1.7 0 0 Z " fill="#EECD02" transform="translate(457,645)"/>
<path d="M0 0 C0.99 0 1.98 0 3 0 C7 6.625 7 6.625 7 10 C4.69 10 2.38 10 0 10 C-1.125 3.375 -1.125 3.375 0 0 Z " fill="#F7DB02" transform="translate(591,678)"/>
<path d="M0 0 C1 2 1 2 1 5 C1.66 3.68 2.32 2.36 3 1 C3 5.62 3 10.24 3 15 C1.68 15 0.36 15 -1 15 C-1.02685412 12.68756208 -1.04632841 10.3750373 -1.0625 8.0625 C-1.07410156 6.77472656 -1.08570313 5.48695313 -1.09765625 4.16015625 C-1 1 -1 1 0 0 Z " fill="#FDE401" transform="translate(502,657)"/>
<path d="M0 0 C0.33 0.99 0.66 1.98 1 3 C-2.27301919 5.96909598 -4.38065762 6.34354794 -8.75 6.1875 C-10.22726562 6.14689453 -10.22726562 6.14689453 -11.734375 6.10546875 C-12.85585938 6.05326172 -12.85585938 6.05326172 -14 6 C-14.33 5.01 -14.66 4.02 -15 3 C-11.7 2.67 -8.4 2.34 -5 2 C-5 2.66 -5 3.32 -5 4 C-3.35 2.68 -1.7 1.36 0 0 Z " fill="#FBE402" transform="translate(427,682)"/>
<path d="M0 0 C3.30118794 0.5805321 4.91134076 1.54868099 7.234375 3.94140625 C8.09482422 4.81635742 8.09482422 4.81635742 8.97265625 5.70898438 C9.55917969 6.32064453 10.14570312 6.93230469 10.75 7.5625 C11.35199219 8.17802734 11.95398438 8.79355469 12.57421875 9.42773438 C14.05634381 10.94514813 15.5290967 12.47170596 17 14 C16.34 14.66 15.68 15.32 15 16 C11 12 7 8 3 4 C2.44481689 3.46544189 1.88963379 2.93088379 1.31762695 2.38012695 C0 1 0 1 0 0 Z " fill="#F7E104" transform="translate(711,553)"/>
<path d="M0 0 C4.91935902 4.11619836 9.52647956 8.40410362 14 13 C12.2265625 13.703125 12.2265625 13.703125 10 14 C8.1484375 12.671875 8.1484375 12.671875 6.375 10.75 C5.78460937 10.12609375 5.19421875 9.5021875 4.5859375 8.859375 C3 7 3 7 1 4 C0.34 3.34 -0.32 2.68 -1 2 C-0.67 1.34 -0.34 0.68 0 0 Z " fill="#DABF04" transform="translate(696,535)"/>
<path d="M0 0 C4.91935902 4.11619836 9.52647956 8.40410362 14 13 C12.68 13.33 11.36 13.66 10 14 C9.34 12.68 8.68 11.36 8 10 C7.34 10 6.68 10 6 10 C2.38019915 6.90992611 0.41317222 4.82034262 0 0 Z " fill="#E0C803" transform="translate(682,521)"/>
<path d="M0 0 C2.52259061 1.97420135 2.9929808 2.96745642 3.6875 6.1875 C3.790625 7.115625 3.89375 8.04375 4 9 C4.66 9 5.32 9 6 9 C7.47075246 13.41225737 8.36884358 16.48281619 7 21 C3.46387163 13.95945742 0.57835366 7.95236277 0 0 Z " fill="#E8D103" transform="translate(502,489)"/>
<path d="M0 0 C2.65480782 2.65480782 3.40063201 5.29112771 4.6875 8.8125 C5.14511719 10.03582031 5.60273437 11.25914062 6.07421875 12.51953125 C6.98567703 15.94615288 7.04648957 17.67026045 6 21 C0.51291813 15.51291813 0.39011155 7.31795463 0 0 Z " fill="#CEB806" transform="translate(739,406)"/>
<path d="M0 0 C0.33 0 0.66 0 1 0 C1 5.28 1 10.56 1 16 C2.32 16 3.64 16 5 16 C4.625 17.9375 4.625 17.9375 4 20 C3.34 20.33 2.68 20.66 2 21 C-0.71486934 17.02389214 -0.22440753 12.86098023 -0.125 8.25 C-0.11597656 7.45722656 -0.10695313 6.66445313 -0.09765625 5.84765625 C-0.07417012 3.89830719 -0.03830137 1.94911425 0 0 Z M5 4 C5.33 4 5.66 4 6 4 C6 7.96 6 11.92 6 16 C5.67 16 5.34 16 5 16 C5 12.04 5 8.08 5 4 Z " fill="#DDBE03" transform="translate(500,656)"/>
<path d="M0 0 C1.65 0.33 3.3 0.66 5 1 C4.01 1.33 3.02 1.66 2 2 C2 2.99 2 3.98 2 5 C6.29 5.33 10.58 5.66 15 6 C15 6.33 15 6.66 15 7 C8.30799551 7.37721111 2.05826162 7.17275339 -4 4 C-4.66 3.01 -5.32 2.02 -6 1 C-3.525 1.99 -3.525 1.99 -1 3 C-0.67 2.01 -0.34 1.02 0 0 Z " fill="#B79D06" transform="translate(515,683)"/>
<path d="M0 0 C0 0.66 0 1.32 0 2 C0.66 2.33 1.32 2.66 2 3 C0.56342755 3.33730842 -0.87430093 3.66969591 -2.3125 4 C-3.51326172 4.2784375 -3.51326172 4.2784375 -4.73828125 4.5625 C-7 5 -7 5 -10 5 C-9.67 5.99 -9.34 6.98 -9 8 C-12 8 -12 8 -15 6 C-12.87717331 4.99539469 -10.75166979 3.99644398 -8.625 3 C-7.44164062 2.443125 -6.25828125 1.88625 -5.0390625 1.3125 C-2 0 -2 0 0 0 Z " fill="#CAAC06" transform="translate(581,342)"/>
<path d="M0 0 C1.98 0.99 1.98 0.99 4 2 C4.33 2.99 4.66 3.98 5 5 C4.34 5 3.68 5 3 5 C3 4.34 3 3.68 3 3 C2.34 3 1.68 3 1 3 C1 11.25 1 19.5 1 28 C0.67 28 0.34 28 0 28 C0 18.76 0 9.52 0 0 Z " fill="#EACF02" transform="translate(626,465)"/>
<path d="M0 0 C0 0.33 0 0.66 0 1 C-0.72445312 1.02578125 -1.44890625 1.0515625 -2.1953125 1.078125 C-8.41013351 1.44272783 -12.16872769 2.03587913 -17 6 C-17.99 6.495 -17.99 6.495 -19 7 C-18.77870959 3.90193423 -17.9151813 2.9151813 -15.6875 0.6875 C-10.96917371 -2.2918854 -5.23101205 -0.77872671 0 0 Z " fill="#CCB305" transform="translate(529,645)"/>
<path d="M0 0 C4.95 0.33 9.9 0.66 15 1 C14.67 1.66 14.34 2.32 14 3 C10.83984375 3.4140625 10.83984375 3.4140625 6.9375 3.625 C5.64714844 3.69976563 4.35679687 3.77453125 3.02734375 3.8515625 C2.02832031 3.90054688 1.02929688 3.94953125 0 4 C0 2.68 0 1.36 0 0 Z " fill="#FEE601" transform="translate(616,641)"/>
<path d="M0 0 C0.66 0 1.32 0 2 0 C2 0.66 2 1.32 2 2 C2.78375 2.2475 3.5675 2.495 4.375 2.75 C7.32317108 4.15389099 7.9024777 5.00675737 9 8 C9.99 8 10.98 8 12 8 C12.33 8.99 12.66 9.98 13 11 C8.55915472 9.51971824 4.37077302 7.28016085 1 4 C0.296875 1.8359375 0.296875 1.8359375 0 0 Z " fill="#E1CA04" transform="translate(548,560)"/>
<path d="M0 0 C0.33 0 0.66 0 1 0 C1.69969682 2.24623699 2.38435043 4.49716414 3.0625 6.75 C3.63677734 8.62945312 3.63677734 8.62945312 4.22265625 10.546875 C4.92656828 13.6738008 5.16653785 15.09466046 4 18 C2.015625 16.453125 2.015625 16.453125 0 14 C-0.390625 10.546875 -0.390625 10.546875 -0.25 6.75 C-0.21390625 5.48671875 -0.1778125 4.2234375 -0.140625 2.921875 C-0.09421875 1.95765625 -0.0478125 0.9934375 0 0 Z " fill="#C7AC03" transform="translate(548,473)"/>
<path d="M0 0 C3.63 0 7.26 0 11 0 C11 0.33 11 0.66 11 1 C9.02 1 7.04 1 5 1 C5.33 1.66 5.66 2.32 6 3 C8.58605332 3.4683265 8.58605332 3.4683265 11.5625 3.625 C13.08037109 3.73714844 13.08037109 3.73714844 14.62890625 3.8515625 C15.80259766 3.92503906 15.80259766 3.92503906 17 4 C17 4.33 17 4.66 17 5 C14.73078464 5.13489391 12.4592933 5.23193995 10.1875 5.3125 C8.29064453 5.39951172 8.29064453 5.39951172 6.35546875 5.48828125 C3 5 3 5 1.05078125 2.48046875 C0.53064453 1.25263672 0.53064453 1.25263672 0 0 Z " fill="#CBB005" transform="translate(407,684)"/>
<path d="M0 0 C0.99 0.33 1.98 0.66 3 1 C3.6875 3.0625 3.6875 3.0625 4 5 C3.34 5 2.68 5 2 5 C2.061875 6.918125 2.061875 6.918125 2.125 8.875 C2.1953125 11.0546875 2.1953125 11.0546875 2 13 C1.34 13.66 0.68 14.32 0 15 C0 10.05 0 5.1 0 0 Z " fill="#FBE302" transform="translate(592,644)"/>
<path d="M0 0 C0.33 0 0.66 0 1 0 C1.02696365 1.79158489 1.04637917 3.58328473 1.0625 5.375 C1.07410156 6.37273438 1.08570313 7.37046875 1.09765625 8.3984375 C1 11 1 11 0 13 C-6.93 12.505 -6.93 12.505 -14 12 C-14 11.67 -14 11.34 -14 11 C-12.84371094 10.92652344 -12.84371094 10.92652344 -11.6640625 10.8515625 C-10.66117188 10.77679687 -9.65828125 10.70203125 -8.625 10.625 C-7.62726562 10.55539062 -6.62953125 10.48578125 -5.6015625 10.4140625 C-2.84491121 10.23636036 -2.84491121 10.23636036 -1 8 C-0.54188325 6.02764667 -0.54188325 6.02764667 -0.375 3.875 C-0.25125 2.59625 -0.1275 1.3175 0 0 Z " fill="#B69B04" transform="translate(591,650)"/>
<path d="M0 0 C2.97 0 5.94 0 9 0 C5.7886563 1.60567185 3.71435845 2.39337412 0.3125 3.0625 C-2.62766119 3.47713272 -2.62766119 3.47713272 -5 5 C-6.66617115 5.04063832 -8.33388095 5.042721 -10 5 C-9.01 3.68 -8.02 2.36 -7 1 C-4.69 1.33 -2.38 1.66 0 2 C0 1.34 0 0.68 0 0 Z " fill="#D3B905" transform="translate(653,583)"/>
<path d="M0 0 C3.36179774 1.44077046 5.59156268 3.24750021 8 6 C8 6.66 8 7.32 8 8 C8.66 8.33 9.32 8.66 10 9 C9.34 9.66 8.68 10.32 8 11 C6.84501103 9.92643323 5.70132133 8.84070212 4.5625 7.75 C3.92441406 7.14671875 3.28632812 6.5434375 2.62890625 5.921875 C0.91483694 3.89951984 0.40641122 2.58729395 0 0 Z " fill="#E5CE03" transform="translate(680,573)"/>
<path d="M0 0 C7.48291572 6.15034169 7.48291572 6.15034169 10 10 C7.35337395 9.84876423 5.55721506 9.49998757 3.5546875 7.703125 C0 3.6 0 3.6 0 0 Z " fill="#E8CE04" transform="translate(663,502)"/>
<path d="M0 0 C0.33 0 0.66 0 1 0 C1 1.65 1 3.3 1 5 C1.66 5 2.32 5 3 5 C3.33 5.66 3.66 6.32 4 7 C4.33 5.02 4.66 3.04 5 1 C5.33 1 5.66 1 6 1 C6.36923077 8.50769231 6.36923077 8.50769231 4.5 11 C4.005 11.33 3.51 11.66 3 12 C2.67 10.35 2.34 8.7 2 7 C1.01 7.33 0.02 7.66 -1 8 C-0.67 5.36 -0.34 2.72 0 0 Z " fill="#DDC103" transform="translate(425,672)"/>
<path d="M0 0 C0.66 0.33 1.32 0.66 2 1 C2 1.99 2 2.98 2 4 C1.01 4 0.02 4 -1 4 C-1 4.66 -1 5.32 -1 6 C-5.62 6 -10.24 6 -15 6 C-15 5.67 -15 5.34 -15 5 C-14.08476562 4.89042969 -13.16953125 4.78085937 -12.2265625 4.66796875 C-11.03804688 4.50941406 -9.84953125 4.35085938 -8.625 4.1875 C-7.44164062 4.03667969 -6.25828125 3.88585937 -5.0390625 3.73046875 C-1.70467916 3.29300666 -1.70467916 3.29300666 0 0 Z " fill="#DDC103" transform="translate(473,661)"/>
<path d="M0 0 C4.51617599 -0.07654536 8.59085217 -0.10228696 13 1 C13 1.99 13 2.98 13 4 C8.38 3.34 3.76 2.68 -1 2 C-0.67 1.34 -0.34 0.68 0 0 Z " fill="#F6D701" transform="translate(523,643)"/>
<path d="M0 0 C3.97497544 3.40712181 5.86793788 7.32760855 8 12 C7.01 12.495 7.01 12.495 6 13 C5.34 12.01 4.68 11.02 4 10 C3.29875 9.21625 2.5975 8.4325 1.875 7.625 C-0.19635612 4.72510143 -0.39656505 3.46994421 0 0 Z " fill="#D0B706" transform="translate(729,389)"/>
<path d="M0 0 C3.875 1.875 3.875 1.875 5 3 C5.04080783 4.99958364 5.04254356 7.00045254 5 9 C4.01 9.495 4.01 9.495 3 10 C3 9.01 3 8.02 3 7 C2.34 7 1.68 7 1 7 C0.67 4.69 0.34 2.38 0 0 Z " fill="#FDE201" transform="translate(425,670)"/>
<path d="M0 0 C0.33 0 0.66 0 1 0 C1.02725341 1.7290774 1.04650987 3.45828176 1.0625 5.1875 C1.07410156 6.15042969 1.08570313 7.11335938 1.09765625 8.10546875 C1.00486622 10.85576513 0.62111685 13.32479591 0 16 C-0.33 16 -0.66 16 -1 16 C-1.22384382 14.27277272 -1.42839969 12.54303993 -1.625 10.8125 C-1.74101563 9.84957031 -1.85703125 8.88664062 -1.9765625 7.89453125 C-2.00194942 4.75924677 -1.34359283 2.80513465 0 0 Z " fill="#EDD401" transform="translate(749,467)"/>
<path d="M0 0 C3.26566506 4.89849759 3.09311493 8.31998909 3 14 C0.9375 12.0625 0.9375 12.0625 -1 9 C-1.05666696 5.91937821 -0.60438257 3.01534349 0 0 Z " fill="#C0A406" transform="translate(746,426)"/>
<path d="M0 0 C0.66 0 1.32 0 2 0 C1.38545304 3.99455527 -0.70646737 6.74466336 -3 10 C-4.32 9.34 -5.64 8.68 -7 8 C-6.38125 7.938125 -5.7625 7.87625 -5.125 7.8125 C-2.74397155 7.17948312 -2.74397155 7.17948312 -1.8125 4.5625 C-1.4103125 3.2940625 -1.4103125 3.2940625 -1 2 C-0.67 1.34 -0.34 0.68 0 0 Z " fill="#E7D206" transform="translate(729,527)"/>
<path d="M0 0 C0.66 0.33 1.32 0.66 2 1 C1.07161713 2.31896465 0.13194268 3.62998689 -0.8125 4.9375 C-1.59560547 6.03384766 -1.59560547 6.03384766 -2.39453125 7.15234375 C-4 9 -4 9 -7 10 C-6.42424336 6.64749299 -5.40693737 5.06181371 -2.9375 2.75 C-2.38964844 2.22921875 -1.84179688 1.7084375 -1.27734375 1.171875 C-0.64505859 0.59179688 -0.64505859 0.59179688 0 0 Z " fill="#DDC503" transform="translate(544,363)"/>
<path d="M0 0 C5 2 5 2 10 4 C10 4.66 10 5.32 10 6 C10.66 6.33 11.32 6.66 12 7 C11.01 7.33 10.02 7.66 9 8 C8.67 7.01 8.34 6.02 8 5 C7.01 5.33 6.02 5.66 5 6 C4.67 5.01 4.34 4.02 4 3 C3.01 3.33 2.02 3.66 1 4 C0.67 2.68 0.34 1.36 0 0 Z " fill="#D6BB05" transform="translate(676,344)"/>
<path d="M0 0 C2 2 2 2 2.125 5.625 C2.08375 6.73875 2.0425 7.8525 2 9 C1.67 8.34 1.34 7.68 1 7 C-1.52733235 6.34444881 -1.52733235 6.34444881 -4 6 C-2.68 4.02 -1.36 2.04 0 0 Z " fill="#E7CB03" transform="translate(542,673)"/>
<path d="M0 0 C1.12894876 0.93274109 2.25300876 1.87140122 3.375 2.8125 C4.00148438 3.33457031 4.62796875 3.85664062 5.2734375 4.39453125 C7 6 7 6 9 9 C6.5625 8.625 6.5625 8.625 4 8 C3.67 7.34 3.34 6.68 3 6 C2.01 5.34 1.02 4.68 0 4 C0 2.68 0 1.36 0 0 Z " fill="#E2C706" transform="translate(673,512)"/>
<path d="M0 0 C0.66 0.99 1.32 1.98 2 3 C2.99 2.01 3.98 1.02 5 0 C4.67 1.98 4.34 3.96 4 6 C3.01 6.33 2.02 6.66 1 7 C1 6.34 1 5.68 1 5 C0.34 5 -0.32 5 -1 5 C-1.33 5.99 -1.66 6.98 -2 8 C-1.47731534 5.23723823 -0.89130413 2.6739124 0 0 Z " fill="#DEBA04" transform="translate(694,497)"/>
<path d="M0 0 C1.13199353 0.9080162 2.25532363 1.82683826 3.375 2.75 C4.00148438 3.26046875 4.62796875 3.7709375 5.2734375 4.296875 C7.08312318 6.08199481 8.00117455 7.67949644 9 10 C5.54537888 9.74410214 4.72618453 8.71373837 2.25 6.125 C0 3 0 3 0 0 Z " fill="#E4CF04" transform="translate(714,371)"/>
<path d="M0 0 C1.08784335 3.31395986 1.07262544 3.83580335 -0.4375 7.25 C-0.953125 8.1575 -1.46875 9.065 -2 10 C-2.99 10 -3.98 10 -5 10 C-5 6.60406522 -4.47834052 5.93380119 -2.5 3.3125 C-2.0359375 2.68988281 -1.571875 2.06726563 -1.09375 1.42578125 C-0.7328125 0.95527344 -0.371875 0.48476563 0 0 Z " fill="#D9BE06" transform="translate(526,382)"/>
<path d="M0 0 C0.33 0 0.66 0 1 0 C1.33 1.65 1.66 3.3 2 5 C2.99 5.33 3.98 5.66 5 6 C5 6.66 5 7.32 5 8 C3.02 8 1.04 8 -1 8 C-1.625 5.6875 -1.625 5.6875 -2 3 C-1.34 2.01 -0.68 1.02 0 0 Z " fill="#FAE003" transform="translate(505,672)"/>
<path d="M0 0 C-1.65 0.33 -3.3 0.66 -5 1 C-5 1.66 -5 2.32 -5 3 C-7.31 3.33 -9.62 3.66 -12 4 C-12 3.01 -12 2.02 -12 1 C-10.37681021 0.63762737 -8.7513642 0.28534843 -7.125 -0.0625 C-6.22007812 -0.25972656 -5.31515625 -0.45695312 -4.3828125 -0.66015625 C-2 -1 -2 -1 0 0 Z " fill="#BCA504" transform="translate(601,387)"/>
<path d="M0 0 C2.55028983 1.27514492 2.93081711 2.40341297 4 5 C4 5.99 4 6.98 4 8 C1.69 8 -0.62 8 -3 8 C-2.01 7.67 -1.02 7.34 0 7 C0 4.69 0 2.38 0 0 Z " fill="#D8BE06" transform="translate(594,680)"/>
<path d="M0 0 C0.99 0.33 1.98 0.66 3 1 C3 1.99 3 2.98 3 4 C2.34 4 1.68 4 1 4 C1 4.66 1 5.32 1 6 C-0.65 6.66 -2.3 7.32 -4 8 C-2.87548273 5.0280615 -1.77706209 2.66559313 0 0 Z " fill="#2F2504" transform="translate(561,416)"/>
<path d="M0 0 C0.33 0 0.66 0 1 0 C1.33 3.3 1.66 6.6 2 10 C1.01 10 0.02 10 -1 10 C-1.33 8.35 -1.66 6.7 -2 5 C-1.67 5 -1.34 5 -1 5 C-0.67 3.35 -0.34 1.7 0 0 Z " fill="#F2D403" transform="translate(406,650)"/>
<path d="M0 0 C1.98 0.495 1.98 0.495 4 1 C4.33 2.32 4.66 3.64 5 5 C3.35 5.33 1.7 5.66 0 6 C-0.33 5.01 -0.66 4.02 -1 3 C-0.34 3 0.32 3 1 3 C0.67 2.01 0.34 1.02 0 0 Z " fill="#FAE303" transform="translate(538,645)"/>
<path d="M0 0 C2.31 0.33 4.62 0.66 7 1 C7 1.66 7 2.32 7 3 C5 3.66666667 3 4.33333333 1 5 C0.67 3.35 0.34 1.7 0 0 Z " fill="#FAE004" transform="translate(421,643)"/>
<path d="M0 0 C1.17539996 0.92652701 2.34010577 1.86663387 3.5 2.8125 C4.1496875 3.33457031 4.799375 3.85664062 5.46875 4.39453125 C7 6 7 6 7 9 C5.82460004 8.07347299 4.65989423 7.13336613 3.5 6.1875 C2.52546875 5.40439453 2.52546875 5.40439453 1.53125 4.60546875 C0 3 0 3 0 0 Z " fill="#F1DB04" transform="translate(728,568)"/>
<path d="M0 0 C2.31459868 1.81817001 2.95377187 2.75615543 3.51171875 5.69921875 C3.56972656 6.68535156 3.62773437 7.67148437 3.6875 8.6875 C3.75324219 9.68136719 3.81898438 10.67523438 3.88671875 11.69921875 C3.92410156 12.45847656 3.96148437 13.21773438 4 14 C1.01520806 9.52281208 0 5.36175907 0 0 Z " fill="#9C8306" transform="translate(502,489)"/>
<path d="M0 0 C0.33 0 0.66 0 1 0 C1.66 2.64 2.32 5.28 3 8 C2.34 8 1.68 8 1 8 C0.67 9.65 0.34 11.3 0 13 C-0.66 13 -1.32 13 -2 13 C-1.34 8.71 -0.68 4.42 0 0 Z " fill="#D7B605" transform="translate(409,650)"/>
<path d="M0 0 C1.14926266 0.95421808 2.29430541 1.91352045 3.4375 2.875 C4.07558594 3.40867187 4.71367188 3.94234375 5.37109375 4.4921875 C7 6 7 6 8 8 C4.21479387 7.45925627 2.40822445 5.92427254 0 3 C0 2.01 0 1.02 0 0 Z " fill="#EED704" transform="translate(636,475)"/>
<path d="M0 0 C3.14624993 -0.26218749 4.61837017 -0.24754367 7.3125 1.5 C8.1478125 2.2425 8.1478125 2.2425 9 3 C6.03 3 3.06 3 0 3 C0 2.01 0 1.02 0 0 Z " fill="#FEEC01" transform="translate(517,685)"/>
<path d="M0 0 C3.375 -0.125 3.375 -0.125 7 0 C9 2 9 2 9 4 C5.65626525 3.44271087 2.96687001 2.64826111 0 1 C0 0.67 0 0.34 0 0 Z " fill="#D3B505" transform="translate(409,663)"/>
<path d="M0 0 C0.99 0.33 1.98 0.66 3 1 C2.67 2.65 2.34 4.3 2 6 C-0.64 4.68 -3.28 3.36 -6 2 C-2 1 -2 1 0 2 C0 1.34 0 0.68 0 0 Z " fill="#D0B206" transform="translate(536,645)"/>
<path d="M0 0 C0.99 0.33 1.98 0.66 3 1 C3.33 2.98 3.66 4.96 4 7 C3.01 7.495 3.01 7.495 2 8 C0.74335022 5.09399739 0 3.20395416 0 0 Z " fill="#DCC204" transform="translate(742,419)"/>
<path d="M0 0 C2.5 2.3125 2.5 2.3125 5 5 C5 5.99 5 6.98 5 8 C2 7 2 7 0 4 C0 2.68 0 1.36 0 0 Z " fill="#D4BC03" transform="translate(723,381)"/>
<path d="M0 0 C4.875 4.625 4.875 4.625 6 8 C5.34 8 4.68 8 4 8 C3.34 7.34 2.68 6.68 2 6 C1.34 5.67 0.68 5.34 0 5 C0 3.35 0 1.7 0 0 Z " fill="#D7BB06" transform="translate(506,672)"/>
<path d="M0 0 C1.65 1.65 3.3 3.3 5 5 C4.67 5.99 4.34 6.98 4 8 C2.02 5.69 0.04 3.38 -2 1 C-1.34 0.67 -0.68 0.34 0 0 Z " fill="#E4CB04" transform="translate(531,543)"/>
<path d="M0 0 C0.33 0 0.66 0 1 0 C0.75 3.375 0.75 3.375 0 7 C-2.0625 8.4375 -2.0625 8.4375 -4 9 C-2.80100302 5.9168649 -1.52299523 2.93720508 0 0 Z " fill="#3C2E05" transform="translate(737,517)"/>
<path d="M0 0 C0.33 0 0.66 0 1 0 C1.99 4.62 2.98 9.24 4 14 C3.34 14 2.68 14 2 14 C0.02905192 9.07262981 -0.1799928 5.21979128 0 0 Z " fill="#FDEC00" transform="translate(503,483)"/>
<path d="M0 0 C0.99 0.33 1.98 0.66 3 1 C2.34 1 1.68 1 1 1 C0.67 2.98 0.34 4.96 0 7 C-0.33 6.01 -0.66 5.02 -1 4 C-1.99 3.67 -2.98 3.34 -4 3 C-2.1875 1.4375 -2.1875 1.4375 0 0 Z " fill="#E4C205" transform="translate(475,644)"/>
<path d="M0 0 C3 1 3 1 4.6875 4.0625 C5.120625 5.031875 5.55375 6.00125 6 7 C5.01 7 4.02 7 3 7 C0 2.77777778 0 2.77777778 0 0 Z " fill="#F8E202" transform="translate(517,525)"/>
<path d="M0 0 C2.88575819 0.39803561 3.82189513 0.79009069 5.75 3.0625 C6.1625 3.701875 6.575 4.34125 7 5 C4.625 4.75 4.625 4.75 2 4 C0.6875 1.9375 0.6875 1.9375 0 0 Z " fill="#EBD405" transform="translate(652,493)"/>
<path d="M0 0 C0.33 0 0.66 0 1 0 C1.33 2.97 1.66 5.94 2 9 C1.01 9 0.02 9 -1 9 C-1.33 9.66 -1.66 10.32 -2 11 C-1.855625 10.29875 -1.71125 9.5975 -1.5625 8.875 C-0.98521625 5.92443859 -0.48304859 2.96729849 0 0 Z " fill="#E1C403" transform="translate(701,476)"/>
<path d="M0 0 C0.99 0.66 1.98 1.32 3 2 C0.03 4.475 0.03 4.475 -3 7 C-3 4 -3 4 -2 2 C-1.34 2 -0.68 2 0 2 C0 1.34 0 0.68 0 0 Z " fill="#E2CB04" transform="translate(568,404)"/>
<path d="M0 0 C0 0.99 0 1.98 0 3 C-1.53125 4.38671875 -1.53125 4.38671875 -3.5 5.6875 C-4.47453125 6.34298828 -4.47453125 6.34298828 -5.46875 7.01171875 C-5.9740625 7.33785156 -6.479375 7.66398437 -7 8 C-3.875 1.75 -3.875 1.75 0 0 Z " fill="#FAE803" transform="translate(550,360)"/>
<path d="M0 0 C0.66 0.66 1.32 1.32 2 2 C1.01 2.495 1.01 2.495 0 3 C0 2.01 0 1.02 0 0 Z M-4 1 C-3.34 1 -2.68 1 -2 1 C-2 1.66 -2 2.32 -2 3 C-1.34 3.33 -0.68 3.66 0 4 C-0.99 4.33 -1.98 4.66 -3 5 C-3.66 5.66 -4.32 6.32 -5 7 C-4.67 5.02 -4.34 3.04 -4 1 Z " fill="#CEAF03" transform="translate(511,414)"/>
<path d="M0 0 C2.375 0.1875 2.375 0.1875 5 1 C6.3125 3.5625 6.3125 3.5625 7 6 C5.68 5.34 4.36 4.68 3 4 C3 3.34 3 2.68 3 2 C2.01 1.67 1.02 1.34 0 1 C0 0.67 0 0.34 0 0 Z " fill="#DDC305" transform="translate(666,392)"/>
</svg>
